<?xml version="1.0" encoding="UTF-8" standalone="no"?>
<!DOCTYPE svg PUBLIC "-//W3C//DTD SVG 1.0//EN" "http://www.w3.org/TR/2001/PR-SVG-20010719/DTD/svg10.dtd">
<svg width="22cm" height="33cm" viewBox="101 81 432 658" xmlns="http://www.w3.org/2000/svg" xmlns:xlink="http://www.w3.org/1999/xlink">
  <text font-size="12.7998" style="fill: #000000;text-anchor:start;font-family:sans-serif;font-style:normal;font-weight:normal" x="117" y="102">
    <tspan x="117" y="102">USUARIO</tspan>
    <tspan x="117" y="118">ACADEMICO</tspan>
  </text>
  <text font-size="12.7998" style="fill: #000000;text-anchor:start;font-family:sans-serif;font-style:normal;font-weight:normal" x="284" y="118">
    <tspan x="284" y="118">SISTEMA</tspan>
  </text>
  <text font-size="12.7998" style="fill: #000000;text-anchor:start;font-family:sans-serif;font-style:normal;font-weight:normal" x="405" y="116">
    <tspan x="405" y="116">ADMINISTRADOR</tspan>
  </text>
  <line style="fill: none; fill-opacity:0; stroke-width: 2; stroke: #000000" x1="235" y1="83" x2="231.232" y2="733.953"/>
  <line style="fill: none; fill-opacity:0; stroke-width: 2; stroke: #000000" x1="391.403" y1="86.4555" x2="393.164" y2="727.784"/>
  <g>
    <rect style="fill: #ffffff" x="102.37" y="147.912" width="100.55" height="52" rx="10" ry="10"/>
    <rect style="fill: none; fill-opacity:0; stroke-width: 2; stroke: #000000" x="102.37" y="147.912" width="100.55" height="52" rx="10" ry="10"/>
    <text font-size="12.7998" style="fill: #000000;text-anchor:middle;font-family:sans-serif;font-style:normal;font-weight:normal" x="152.645" y="169.812">
      <tspan x="152.645" y="169.812">INGRESO DE</tspan>
      <tspan x="152.645" y="185.812">CLAVE</tspan>
    </text>
  </g>
  <g>
    <rect style="fill: #ffffff" x="267.924" y="205.203" width="87.25" height="52" rx="10" ry="10"/>
    <rect style="fill: none; fill-opacity:0; stroke-width: 2; stroke: #000000" x="267.924" y="205.203" width="87.25" height="52" rx="10" ry="10"/>
    <text font-size="12.7998" style="fill: #000000;text-anchor:middle;font-family:sans-serif;font-style:normal;font-weight:normal" x="311.549" y="227.103">
      <tspan x="311.549" y="227.103">CLAVFE </tspan>
      <tspan x="311.549" y="243.103">ACEPTADA</tspan>
    </text>
  </g>
  <g>
    <rect style="fill: #ffffff" x="109.076" y="290.025" width="104.6" height="52" rx="10" ry="10"/>
    <rect style="fill: none; fill-opacity:0; stroke-width: 2; stroke: #000000" x="109.076" y="290.025" width="104.6" height="52" rx="10" ry="10"/>
    <text font-size="12.7998" style="fill: #000000;text-anchor:middle;font-family:sans-serif;font-style:normal;font-weight:normal" x="161.376" y="311.925">
      <tspan x="161.376" y="311.925">INGRESO DE </tspan>
      <tspan x="161.376" y="327.925">PROY</tspan>
    </text>
  </g>
  <g>
    <rect style="fill: #ffffff" x="247.875" y="365.593" width="124.35" height="68" rx="10" ry="10"/>
    <rect style="fill: none; fill-opacity:0; stroke-width: 2; stroke: #000000" x="247.875" y="365.593" width="124.35" height="68" rx="10" ry="10"/>
    <text font-size="12.7998" style="fill: #000000;text-anchor:middle;font-family:sans-serif;font-style:normal;font-weight:normal" x="310.05" y="387.493">
      <tspan x="310.05" y="387.493">VALIDACION DE </tspan>
      <tspan x="310.05" y="403.493">DATOS</tspan>
      <tspan x="310.05" y="419.493">FILTRO INICIAL</tspan>
    </text>
  </g>
  <g>
    <rect style="fill: #ffffff" x="269.466" y="482.801" width="82.35" height="52" rx="10" ry="10"/>
    <rect style="fill: none; fill-opacity:0; stroke-width: 2; stroke: #000000" x="269.466" y="482.801" width="82.35" height="52" rx="10" ry="10"/>
    <text font-size="12.7998" style="fill: #000000;text-anchor:middle;font-family:sans-serif;font-style:normal;font-weight:normal" x="310.641" y="504.701">
      <tspan x="310.641" y="504.701">ENVIO DE</tspan>
      <tspan x="310.641" y="520.701">ALERTA</tspan>
    </text>
  </g>
  <g>
    <rect style="fill: #ffffff" x="422.145" y="575.334" width="109.3" height="68" rx="10" ry="10"/>
    <rect style="fill: none; fill-opacity:0; stroke-width: 2; stroke: #000000" x="422.145" y="575.334" width="109.3" height="68" rx="10" ry="10"/>
    <text font-size="12.7998" style="fill: #000000;text-anchor:middle;font-family:sans-serif;font-style:normal;font-weight:normal" x="476.795" y="597.234">
      <tspan x="476.795" y="597.234">APROBACION </tspan>
      <tspan x="476.795" y="613.234">DE </tspan>
      <tspan x="476.795" y="629.234">PROYECTO</tspan>
    </text>
  </g>
  <g>
    <rect style="fill: #ffffff" x="106.85" y="670.951" width="109.3" height="68" rx="10" ry="10"/>
    <rect style="fill: none; fill-opacity:0; stroke-width: 2; stroke: #000000" x="106.85" y="670.951" width="109.3" height="68" rx="10" ry="10"/>
    <text font-size="12.7998" style="fill: #000000;text-anchor:middle;font-family:sans-serif;font-style:normal;font-weight:normal" x="161.5" y="692.851">
      <tspan x="161.5" y="692.851">APROBACION </tspan>
      <tspan x="161.5" y="708.851">DE </tspan>
      <tspan x="161.5" y="724.851">PROYECTO</tspan>
    </text>
  </g>
  <g>
    <polyline style="fill: none; fill-opacity:0; stroke-width: 2; stroke: #000000" points="202.92,173.912 311.549,173.912 311.549,195.467 "/>
    <polygon style="fill: #000000" points="311.549,202.967 306.549,192.967 311.549,195.467 316.549,192.967 "/>
    <polygon style="fill: none; fill-opacity:0; stroke-width: 2; stroke: #000000" points="311.549,202.967 306.549,192.967 311.549,195.467 316.549,192.967 "/>
  </g>
  <g>
    <polyline style="fill: none; fill-opacity:0; stroke-width: 2; stroke: #000000" points="311.549,257.203 311.549,273.614 161.376,273.614 161.376,280.289 "/>
    <polygon style="fill: #000000" points="161.376,287.789 156.376,277.789 161.376,280.289 166.376,277.789 "/>
    <polygon style="fill: none; fill-opacity:0; stroke-width: 2; stroke: #000000" points="161.376,287.789 156.376,277.789 161.376,280.289 166.376,277.789 "/>
  </g>
  <g>
    <polyline style="fill: none; fill-opacity:0; stroke-width: 2; stroke: #000000" points="161.376,342.025 161.376,353.809 310.05,353.809 310.05,355.857 "/>
    <polygon style="fill: #000000" points="310.05,363.357 305.05,353.357 310.05,355.857 315.05,353.357 "/>
    <polygon style="fill: none; fill-opacity:0; stroke-width: 2; stroke: #000000" points="310.05,363.357 305.05,353.357 310.05,355.857 315.05,353.357 "/>
  </g>
  <g>
    <line style="fill: none; fill-opacity:0; stroke-width: 2; stroke: #000000" x1="310.05" y1="433.593" x2="310.524" y2="473.066"/>
    <polygon style="fill: #000000" points="310.614,480.565 305.494,470.626 310.524,473.066 315.494,470.506 "/>
    <polygon style="fill: none; fill-opacity:0; stroke-width: 2; stroke: #000000" points="310.614,480.565 305.494,470.626 310.524,473.066 315.494,470.506 "/>
  </g>
  <g>
    <polyline style="fill: none; fill-opacity:0; stroke-width: 2; stroke: #000000" points="310.641,534.801 310.641,555.067 476.795,555.067 476.795,565.598 "/>
    <polygon style="fill: #000000" points="476.795,573.098 471.795,563.098 476.795,565.598 481.795,563.098 "/>
    <polygon style="fill: none; fill-opacity:0; stroke-width: 2; stroke: #000000" points="476.795,573.098 471.795,563.098 476.795,565.598 481.795,563.098 "/>
  </g>
  <g>
    <polyline style="fill: none; fill-opacity:0; stroke-width: 2; stroke: #000000" points="476.795,643.334 476.795,657.142 161.5,657.142 161.5,661.215 "/>
    <polygon style="fill: #000000" points="161.5,668.715 156.5,658.715 161.5,661.215 166.5,658.715 "/>
    <polygon style="fill: none; fill-opacity:0; stroke-width: 2; stroke: #000000" points="161.5,668.715 156.5,658.715 161.5,661.215 166.5,658.715 "/>
  </g>
</svg>
