<?xml version="1.0" encoding="UTF-8" standalone="no"?>
<!DOCTYPE svg PUBLIC "-//W3C//DTD SVG 1.0//EN" "http://www.w3.org/TR/2001/PR-SVG-20010719/DTD/svg10.dtd">
<svg width="27cm" height="40cm" viewBox="79 51 528 799" xmlns="http://www.w3.org/2000/svg" xmlns:xlink="http://www.w3.org/1999/xlink">
  <g>
    <rect style="fill: #ffffff" x="197" y="87" width="409.863" height="762.584"/>
    <rect style="fill: none; fill-opacity:0; stroke-width: 2; stroke: #000000" x="197" y="87" width="409.863" height="762.584"/>
  </g>
  <g>
    <rect style="fill: #ffffff" x="197" y="65" width="229.292" height="22"/>
    <rect style="fill: none; fill-opacity:0; stroke-width: 2; stroke: #000000" x="197" y="65" width="229.292" height="22"/>
  </g>
  <g>
    <ellipse style="fill: #ffffff" cx="134.27" cy="70.999" rx="6" ry="6"/>
    <ellipse style="fill: none; fill-opacity:0; stroke-width: 2; stroke: #000000" cx="134.27" cy="70.999" rx="6" ry="6"/>
    <line style="fill: none; fill-opacity:0; stroke-width: 2; stroke: #000000" x1="110.27" y1="82.999" x2="158.27" y2="82.999"/>
    <line style="fill: none; fill-opacity:0; stroke-width: 2; stroke: #000000" x1="134.27" y1="76.999" x2="134.27" y2="106.999"/>
    <line style="fill: none; fill-opacity:0; stroke-width: 2; stroke: #000000" x1="134.27" y1="106.999" x2="110.27" y2="132.999"/>
    <line style="fill: none; fill-opacity:0; stroke-width: 2; stroke: #000000" x1="134.27" y1="106.999" x2="158.27" y2="132.999"/>
    <text font-size="12.8" style="fill: #000000;text-anchor:middle;font-family:sans-serif;font-style:normal;font-weight:normal" x="134.27" y="156.899">
      <tspan x="134.27" y="156.899">ADMINISTRADOR</tspan>
    </text>
  </g>
  <line style="fill: none; fill-opacity:0; stroke-width: 2; stroke-dasharray: 10; stroke: #000000" x1="553.822" y1="121.599" x2="547.458" y2="818.664"/>
  <line style="fill: none; fill-opacity:0; stroke-width: 2; stroke-dasharray: 10; stroke: #000000" x1="414.958" y1="124.448" x2="413.08" y2="828.178"/>
  <line style="fill: none; fill-opacity:0; stroke-width: 2; stroke-dasharray: 10; stroke: #000000" x1="266.326" y1="127.412" x2="262.848" y2="820.422"/>
  <g>
    <rect style="fill: #ffffff" x="259.834" y="151.086" width="10" height="627.293"/>
    <rect style="fill: none; fill-opacity:0; stroke-width: 2; stroke: #000000" x="259.834" y="151.086" width="10" height="627.293"/>
  </g>
  <text font-size="12.8" style="fill: #000000;text-anchor:start;font-family:sans-serif;font-style:normal;font-weight:normal" x="234.112" y="113.927">
    <tspan x="234.112" y="113.927">INTERFAZ</tspan>
  </text>
  <text font-size="12.8" style="fill: #000000;text-anchor:start;font-family:sans-serif;font-style:normal;font-weight:normal" x="391.482" y="116.715">
    <tspan x="391.482" y="116.715">LOGICA</tspan>
  </text>
  <text font-size="12.8" style="fill: #000000;text-anchor:start;font-family:sans-serif;font-style:normal;font-weight:normal" x="462.292" y="-147.663">
    <tspan x="462.292" y="-147.663"></tspan>
  </text>
  <text font-size="12.8" style="fill: #000000;text-anchor:start;font-family:sans-serif;font-style:normal;font-weight:normal" x="544.402" y="115.093">
    <tspan x="544.402" y="115.093">BD</tspan>
  </text>
  <text font-size="12.8" style="fill: #000000;text-anchor:start;font-family:sans-serif;font-style:normal;font-weight:normal" x="230.292" y="80.3362">
    <tspan x="230.292" y="80.3362">CREACION DE USUARIO</tspan>
  </text>
  <g>
    <line style="fill: none; fill-opacity:0; stroke-width: 2; stroke: #000000" x1="145.453" y1="265.084" x2="249.198" y2="265.084"/>
    <polyline style="fill: none; fill-opacity:0; stroke-width: 2; stroke: #000000" points="241.434,270.084 251.434,265.084 241.434,260.084 "/>
  </g>
  <text font-size="12.8" style="fill: #000000;text-anchor:start;font-family:sans-serif;font-style:normal;font-weight:normal" x="173.993" y="260.326">
    <tspan x="173.993" y="260.326">LOGEO</tspan>
  </text>
  <g>
    <line style="fill: none; fill-opacity:0; stroke-width: 2; stroke-dasharray: 6; stroke: #000000" x1="143.979" y1="337.601" x2="254.314" y2="337.038"/>
    <polyline style="fill: none; fill-opacity:0; stroke-width: 2; stroke: #000000" points="151.717,332.562 141.743,337.613 151.768,342.561 "/>
  </g>
  <text font-size="12.8" style="fill: #000000;text-anchor:start;font-family:sans-serif;font-style:normal;font-weight:normal" x="161.555" y="329.902">
    <tspan x="161.555" y="329.902">OPC ADMIN</tspan>
  </text>
  <g>
    <rect style="fill: #ffffff" x="127.069" y="169.163" width="10" height="626.874"/>
    <rect style="fill: none; fill-opacity:0; stroke-width: 2; stroke: #000000" x="127.069" y="169.163" width="10" height="626.874"/>
  </g>
  <g>
    <line style="fill: none; fill-opacity:0; stroke-width: 2; stroke: #000000" x1="287.61" y1="279.43" x2="391.356" y2="279.43"/>
    <polyline style="fill: none; fill-opacity:0; stroke-width: 2; stroke: #000000" points="383.592,284.43 393.592,279.43 383.592,274.43 "/>
  </g>
  <g>
    <rect style="fill: #ffffff" x="408.91" y="270.246" width="10" height="59.0547"/>
    <rect style="fill: none; fill-opacity:0; stroke-width: 2; stroke: #000000" x="408.91" y="270.246" width="10" height="59.0547"/>
  </g>
  <g>
    <line style="fill: none; fill-opacity:0; stroke-width: 2; stroke-dasharray: 6; stroke: #000000" x1="143.438" y1="202.033" x2="253.772" y2="201.468"/>
    <polyline style="fill: none; fill-opacity:0; stroke-width: 2; stroke: #000000" points="151.176,196.993 141.202,202.045 151.227,206.993 "/>
  </g>
  <text font-size="12.8" style="fill: #000000;text-anchor:start;font-family:sans-serif;font-style:normal;font-weight:normal" x="161.015" y="194.334">
    <tspan x="161.015" y="194.334">OPC LOGEO</tspan>
  </text>
  <g>
    <rect style="fill: #ffffff" x="545.668" y="275.002" width="10.0596" height="37.6491"/>
    <rect style="fill: none; fill-opacity:0; stroke-width: 2; stroke: #000000" x="545.668" y="275.002" width="10.0596" height="37.6491"/>
  </g>
  <g>
    <line style="fill: none; fill-opacity:0; stroke-width: 2; stroke: #000000" x1="423.18" y1="284.188" x2="526.926" y2="284.188"/>
    <polyline style="fill: none; fill-opacity:0; stroke-width: 2; stroke: #000000" points="519.162,289.188 529.162,284.188 519.162,279.188 "/>
  </g>
  <g>
    <line style="fill: none; fill-opacity:0; stroke-width: 2; stroke-dasharray: 6; stroke: #000000" x1="430.036" y1="305.637" x2="540.37" y2="305.074"/>
    <polyline style="fill: none; fill-opacity:0; stroke-width: 2; stroke: #000000" points="437.774,300.598 427.8,305.649 437.825,310.597 "/>
  </g>
  <g>
    <line style="fill: none; fill-opacity:0; stroke-width: 2; stroke-dasharray: 6; stroke: #000000" x1="290.898" y1="315.151" x2="401.234" y2="314.588"/>
    <polyline style="fill: none; fill-opacity:0; stroke-width: 2; stroke: #000000" points="298.636,310.112 288.662,315.163 298.687,320.111 "/>
  </g>
  <text font-size="12.8" style="fill: #000000;text-anchor:start;font-family:sans-serif;font-style:normal;font-weight:normal" x="-91.1986" y="46.27">
    <tspan x="-91.1986" y="46.27"></tspan>
  </text>
  <text font-size="12.8" style="fill: #000000;text-anchor:start;font-family:sans-serif;font-style:normal;font-weight:normal" x="300.048" y="272.218">
    <tspan x="300.048" y="272.218">VALIDACION</tspan>
  </text>
  <text font-size="12.8" style="fill: #000000;text-anchor:start;font-family:sans-serif;font-style:normal;font-weight:normal" x="428.482" y="276.976">
    <tspan x="428.482" y="276.976">CONSULTA PASS</tspan>
  </text>
  <text font-size="12.8" style="fill: #000000;text-anchor:start;font-family:sans-serif;font-style:normal;font-weight:normal" x="-111.415" y="111.676">
    <tspan x="-111.415" y="111.676"></tspan>
  </text>
  <text font-size="12.8" style="fill: #000000;text-anchor:start;font-family:sans-serif;font-style:normal;font-weight:normal" x="429.672" y="301.948">
    <tspan x="429.672" y="301.948">RETORNA PASS</tspan>
  </text>
  <text font-size="12.8" style="fill: #000000;text-anchor:start;font-family:sans-serif;font-style:normal;font-weight:normal" x="298.86" y="309.084">
    <tspan x="298.86" y="309.084">VAL CORRECTA</tspan>
  </text>
  <g>
    <line style="fill: none; fill-opacity:0; stroke-width: 2; stroke: #000000" x1="144.195" y1="404.93" x2="247.94" y2="404.93"/>
    <polyline style="fill: none; fill-opacity:0; stroke-width: 2; stroke: #000000" points="240.176,409.93 250.176,404.93 240.176,399.93 "/>
  </g>
  <text font-size="12.8" style="fill: #000000;text-anchor:start;font-family:sans-serif;font-style:normal;font-weight:normal" x="162.033" y="400.172">
    <tspan x="162.033" y="400.172">NEW USER</tspan>
  </text>
  <g>
    <line style="fill: none; fill-opacity:0; stroke-width: 2; stroke-dasharray: 6; stroke: #000000" x1="145.104" y1="459.749" x2="255.438" y2="459.186"/>
    <polyline style="fill: none; fill-opacity:0; stroke-width: 2; stroke: #000000" points="152.843,454.71 142.868,459.761 152.894,464.709 "/>
  </g>
  <text font-size="12.35" style="fill: #000000;text-anchor:start;font-family:sans-serif;font-style:normal;font-weight:normal" x="136.519" y="447.888">
    <tspan x="136.519" y="447.888">CAMPOS NEW USER</tspan>
  </text>
  <g>
    <line style="fill: none; fill-opacity:0; stroke-width: 2; stroke: #000000" x1="143.005" y1="501.232" x2="246.75" y2="501.232"/>
    <polyline style="fill: none; fill-opacity:0; stroke-width: 2; stroke: #000000" points="238.986,506.232 248.986,501.232 238.986,496.232 "/>
  </g>
  <text font-size="12.8" style="fill: #000000;text-anchor:start;font-family:sans-serif;font-style:normal;font-weight:normal" x="150.141" y="495.88">
    <tspan x="150.141" y="495.88">ENVIO DATOS</tspan>
  </text>
  <g>
    <rect style="fill: #ffffff" x="409.386" y="485.222" width="10" height="163.29"/>
    <rect style="fill: none; fill-opacity:0; stroke-width: 2; stroke: #000000" x="409.386" y="485.222" width="10" height="163.29"/>
  </g>
  <g>
    <line style="fill: none; fill-opacity:0; stroke-width: 2; stroke: #000000" x1="287.494" y1="523.298" x2="391.238" y2="523.298"/>
    <polyline style="fill: none; fill-opacity:0; stroke-width: 2; stroke: #000000" points="383.474,528.298 393.474,523.298 383.474,518.298 "/>
  </g>
  <text font-size="12.8" style="fill: #000000;text-anchor:start;font-family:sans-serif;font-style:normal;font-weight:normal" x="318.412" y="518.54">
    <tspan x="318.412" y="518.54">DATOS</tspan>
  </text>
  <line style="fill: none; fill-opacity:0; stroke-width: 2; stroke: #000000" x1="422.31" y1="523.456" x2="457.986" y2="523.456"/>
  <line style="fill: none; fill-opacity:0; stroke-width: 2; stroke: #000000" x1="459.126" y1="547.43" x2="459.126" y2="524.24"/>
  <g>
    <line style="fill: none; fill-opacity:0; stroke-width: 2; stroke: #000000" x1="427.378" y1="544.862" x2="458.582" y2="544.862"/>
    <polyline style="fill: none; fill-opacity:0; stroke-width: 2; stroke: #000000" points="435.142,539.862 425.142,544.862 435.142,549.862 "/>
  </g>
  <text font-size="10.5438" style="fill: #000000;text-anchor:start;font-family:sans-serif;font-style:normal;font-weight:normal" x="422.856" y="517.7">
    <tspan x="422.856" y="517.7">DATOS CORRECTOS</tspan>
  </text>
  <g>
    <line style="fill: none; fill-opacity:0; stroke-width: 2; stroke: #000000" x1="428.434" y1="581.628" x2="532.18" y2="581.628"/>
    <polyline style="fill: none; fill-opacity:0; stroke-width: 2; stroke: #000000" points="524.416,586.628 534.416,581.628 524.416,576.628 "/>
  </g>
  <text font-size="12.8" style="fill: #000000;text-anchor:start;font-family:sans-serif;font-style:normal;font-weight:normal" x="428.434" y="572.708">
    <tspan x="428.434" y="572.708">GUARDAR DATOS</tspan>
  </text>
  <g>
    <rect style="fill: #ffffff" x="545.57" y="570.132" width="10.0596" height="56.3788"/>
    <rect style="fill: none; fill-opacity:0; stroke-width: 2; stroke: #000000" x="545.57" y="570.132" width="10.0596" height="56.3788"/>
  </g>
  <g>
    <line style="fill: none; fill-opacity:0; stroke-width: 2; stroke-dasharray: 6; stroke: #000000" x1="429.938" y1="619.209" x2="540.274" y2="618.646"/>
    <polyline style="fill: none; fill-opacity:0; stroke-width: 2; stroke: #000000" points="437.676,614.17 427.702,619.221 437.727,624.169 "/>
  </g>
  <text font-size="12.8" style="fill: #000000;text-anchor:start;font-family:sans-serif;font-style:normal;font-weight:normal" x="437.9" y="613.14">
    <tspan x="437.9" y="613.14">GUARDADOS</tspan>
  </text>
  <g>
    <line style="fill: none; fill-opacity:0; stroke-width: 2; stroke-dasharray: 6; stroke: #000000" x1="288.246" y1="636.155" x2="398.58" y2="635.592"/>
    <polyline style="fill: none; fill-opacity:0; stroke-width: 2; stroke: #000000" points="295.984,631.116 286.01,636.167 296.035,641.115 "/>
  </g>
  <text font-size="12.8" style="fill: #000000;text-anchor:start;font-family:sans-serif;font-style:normal;font-weight:normal" x="277.774" y="623.546">
    <tspan x="277.774" y="623.546">DATOS GUARDADOS</tspan>
  </text>
  <g>
    <line style="fill: none; fill-opacity:0; stroke-width: 2; stroke-dasharray: 6; stroke: #000000" x1="143.083" y1="718.061" x2="253.418" y2="717.498"/>
    <polyline style="fill: none; fill-opacity:0; stroke-width: 2; stroke: #000000" points="150.821,713.022 140.847,718.073 150.872,723.021 "/>
  </g>
  <text font-size="12.8" style="fill: #000000;text-anchor:start;font-family:sans-serif;font-style:normal;font-weight:normal" x="142.125" y="678.696">
    <tspan x="142.125" y="678.696">DATOS</tspan>
    <tspan x="142.125" y="694.696">GUARDADOS</tspan>
    <tspan x="142.125" y="710.696">CORRECTAMENTE</tspan>
  </text>
</svg>
